<svg width="149" height="33" viewBox="0 0 149 33" fill="none" xmlns="http://www.w3.org/2000/svg">
<rect x="34" width="115" height="33" rx="16.5" fill="url(#paint0_radial_20_827)"/>
<rect x="34" width="115" height="33" rx="16.5" fill="white" fill-opacity="0.63"/>
<path d="M99.192 18.704C99.192 19.2373 99.0907 19.7173 98.888 20.144C98.6853 20.56 98.3973 20.9227 98.024 21.232C97.6613 21.5307 97.2187 21.76 96.696 21.92C96.184 22.08 95.6187 22.16 95 22.16C94.232 22.16 93.5813 22.0693 93.048 21.888C92.5147 21.696 92.0773 21.472 91.736 21.216V19.424C92.0773 19.712 92.504 19.9787 93.016 20.224C93.5387 20.4693 94.1627 20.592 94.888 20.592C95.6453 20.592 96.2213 20.4213 96.616 20.08C97.0213 19.7387 97.224 19.2693 97.224 18.672C97.224 18.064 97.0373 17.6107 96.664 17.312C96.2907 17.0027 95.7093 16.848 94.92 16.848H93.512V15.232H95C95.544 15.232 95.9867 15.088 96.328 14.8C96.68 14.5013 96.856 14.08 96.856 13.536C96.856 13.0453 96.6907 12.6613 96.36 12.384C96.0293 12.096 95.5547 11.952 94.936 11.952C94.2853 11.952 93.7307 12.0693 93.272 12.304C92.8133 12.5387 92.3867 12.816 91.992 13.136V11.36C92.3653 11.0827 92.7973 10.848 93.288 10.656C93.7893 10.464 94.408 10.368 95.144 10.368C95.6987 10.368 96.2 10.4427 96.648 10.592C97.096 10.7413 97.4747 10.9493 97.784 11.216C98.0933 11.4827 98.3333 11.8027 98.504 12.176C98.6747 12.5493 98.76 12.96 98.76 13.408C98.76 13.7813 98.696 14.112 98.568 14.4C98.4507 14.688 98.2907 14.944 98.088 15.168C97.8853 15.3813 97.6507 15.5573 97.384 15.696C97.128 15.824 96.856 15.9147 96.568 15.968C96.92 16.0107 97.2507 16.1067 97.56 16.256C97.88 16.3947 98.1573 16.5813 98.392 16.816C98.6373 17.04 98.8293 17.312 98.968 17.632C99.1173 17.952 99.192 18.3093 99.192 18.704ZM106.053 22H104.133V12.64L100.869 15.072V13.152L104.389 10.528H106.053V22ZM116.994 15.488C116.994 16.4693 116.898 17.3707 116.706 18.192C116.524 19.0133 116.236 19.7173 115.842 20.304C115.447 20.8907 114.946 21.3493 114.338 21.68C113.73 22 113.004 22.16 112.162 22.16C111.596 22.16 111.111 22.1013 110.706 21.984C110.3 21.8667 109.943 21.712 109.634 21.52V19.872C110.007 20.1173 110.402 20.304 110.818 20.432C111.244 20.5493 111.666 20.608 112.082 20.608C112.54 20.608 112.94 20.5227 113.282 20.352C113.634 20.1707 113.932 19.92 114.178 19.6C114.423 19.28 114.62 18.9013 114.77 18.464C114.919 18.016 115.02 17.52 115.074 16.976C114.455 17.7333 113.612 18.112 112.546 18.112C112.066 18.112 111.612 18.0373 111.186 17.888C110.77 17.728 110.402 17.4933 110.082 17.184C109.762 16.864 109.506 16.4693 109.314 16C109.132 15.52 109.042 14.96 109.042 14.32C109.042 13.7013 109.143 13.1467 109.346 12.656C109.559 12.1653 109.842 11.7547 110.194 11.424C110.556 11.0827 110.972 10.8213 111.442 10.64C111.922 10.4587 112.423 10.368 112.946 10.368C114.268 10.368 115.271 10.7947 115.954 11.648C116.647 12.4907 116.994 13.7707 116.994 15.488ZM112.978 11.936C112.711 11.936 112.455 11.984 112.21 12.08C111.975 12.176 111.767 12.3253 111.586 12.528C111.404 12.72 111.26 12.9653 111.154 13.264C111.047 13.552 110.994 13.8933 110.994 14.288C110.994 14.672 111.042 15.008 111.138 15.296C111.244 15.584 111.383 15.824 111.554 16.016C111.735 16.208 111.932 16.352 112.146 16.448C112.37 16.544 112.604 16.592 112.85 16.592C113.138 16.592 113.404 16.544 113.65 16.448C113.906 16.352 114.13 16.208 114.322 16.016C114.514 15.824 114.663 15.584 114.77 15.296C114.876 15.008 114.93 14.6667 114.93 14.272C114.93 13.536 114.748 12.9653 114.386 12.56C114.023 12.144 113.554 11.936 112.978 11.936ZM121.823 22.16C121.257 22.16 120.735 22.048 120.255 21.824C119.775 21.6 119.359 21.248 119.007 20.768C118.665 20.288 118.399 19.6747 118.207 18.928C118.015 18.1813 117.919 17.2907 117.919 16.256C117.919 15.2213 118.015 14.336 118.207 13.6C118.399 12.8533 118.665 12.2453 119.007 11.776C119.359 11.296 119.775 10.944 120.255 10.72C120.735 10.496 121.257 10.384 121.823 10.384C122.388 10.384 122.905 10.496 123.375 10.72C123.844 10.944 124.249 11.2907 124.591 11.76C124.932 12.2293 125.199 12.832 125.391 13.568C125.583 14.304 125.679 15.1893 125.679 16.224C125.679 17.2587 125.583 18.1493 125.391 18.896C125.199 19.6427 124.932 20.2613 124.591 20.752C124.249 21.232 123.844 21.5893 123.375 21.824C122.905 22.048 122.388 22.16 121.823 22.16ZM121.807 20.608C122.127 20.608 122.404 20.5387 122.639 20.4C122.884 20.2507 123.087 20.0053 123.247 19.664C123.407 19.3227 123.529 18.88 123.615 18.336C123.7 17.7813 123.743 17.0933 123.743 16.272C123.743 15.4613 123.7 14.784 123.615 14.24C123.54 13.6853 123.423 13.2373 123.263 12.896C123.103 12.5547 122.9 12.3093 122.655 12.16C122.42 12.0107 122.143 11.936 121.823 11.936C121.503 11.936 121.22 12.0107 120.975 12.16C120.729 12.3093 120.521 12.5547 120.351 12.896C120.191 13.2373 120.068 13.6853 119.983 14.24C119.897 14.784 119.855 15.4613 119.855 16.272C119.855 17.0933 119.897 17.7813 119.983 18.336C120.068 18.88 120.191 19.3227 120.351 19.664C120.511 20.0053 120.713 20.2507 120.959 20.4C121.204 20.5387 121.487 20.608 121.807 20.608ZM128.882 15.712V10.528H131.794C132.978 10.528 133.916 10.8 134.61 11.344C135.314 11.8773 135.666 12.6987 135.666 13.808C135.666 14.384 135.57 14.8747 135.378 15.28C135.186 15.6853 134.914 16.016 134.562 16.272C134.22 16.528 133.804 16.72 133.314 16.848C132.823 16.9653 132.284 17.024 131.698 17.024H130.818V18.16H134.034V19.472H130.818V22H128.882V19.472H127.666V18.16H128.882V17.024H127.666V15.712H128.882ZM130.818 12.096V15.712H131.714C133.058 15.712 133.73 15.0827 133.73 13.824C133.73 13.216 133.575 12.7787 133.266 12.512C132.967 12.2347 132.476 12.096 131.794 12.096H130.818Z" fill="#808080"/>
<path d="M91 16L137 16" stroke="#808080"/>
<rect width="79" height="33" rx="16.5" fill="url(#paint1_radial_20_827)"/>
<path d="M22.56 21.112V25H19.8V21.112H12.6V19.096L19.32 7.792H22.56V18.856H24.648V21.112H22.56ZM19.8 18.856V11.224L15.216 18.856H19.8ZM37.7953 15.232C37.7953 16.704 37.6513 18.056 37.3633 19.288C37.0913 20.52 36.6593 21.576 36.0673 22.456C35.4753 23.336 34.7233 24.024 33.8113 24.52C32.8993 25 31.8113 25.24 30.5473 25.24C29.6993 25.24 28.9713 25.152 28.3633 24.976C27.7553 24.8 27.2193 24.568 26.7553 24.28V21.808C27.3153 22.176 27.9073 22.456 28.5313 22.648C29.1713 22.824 29.8033 22.912 30.4273 22.912C31.1153 22.912 31.7153 22.784 32.2273 22.528C32.7553 22.256 33.2033 21.88 33.5713 21.4C33.9393 20.92 34.2353 20.352 34.4593 19.696C34.6833 19.024 34.8353 18.28 34.9153 17.464C33.9873 18.6 32.7233 19.168 31.1233 19.168C30.4033 19.168 29.7233 19.056 29.0833 18.832C28.4593 18.592 27.9073 18.24 27.4273 17.776C26.9473 17.296 26.5633 16.704 26.2753 16C26.0033 15.28 25.8673 14.44 25.8673 13.48C25.8673 12.552 26.0193 11.72 26.3233 10.984C26.6433 10.248 27.0673 9.632 27.5953 9.136C28.1393 8.624 28.7633 8.232 29.4673 7.96C30.1873 7.688 30.9393 7.552 31.7233 7.552C33.7073 7.552 35.2113 8.192 36.2353 9.472C37.2753 10.736 37.7953 12.656 37.7953 15.232ZM31.7713 9.904C31.3713 9.904 30.9873 9.976 30.6193 10.12C30.2673 10.264 29.9553 10.488 29.6833 10.792C29.4113 11.08 29.1953 11.448 29.0353 11.896C28.8753 12.328 28.7953 12.84 28.7953 13.432C28.7953 14.008 28.8673 14.512 29.0113 14.944C29.1713 15.376 29.3793 15.736 29.6353 16.024C29.9073 16.312 30.2033 16.528 30.5233 16.672C30.8593 16.816 31.2113 16.888 31.5793 16.888C32.0113 16.888 32.4113 16.816 32.7793 16.672C33.1633 16.528 33.4993 16.312 33.7873 16.024C34.0753 15.736 34.2993 15.376 34.4593 14.944C34.6193 14.512 34.6993 14 34.6993 13.408C34.6993 12.304 34.4273 11.448 33.8833 10.84C33.3393 10.216 32.6353 9.904 31.7713 9.904ZM50.9906 15.232C50.9906 16.704 50.8466 18.056 50.5586 19.288C50.2866 20.52 49.8546 21.576 49.2626 22.456C48.6706 23.336 47.9186 24.024 47.0066 24.52C46.0946 25 45.0066 25.24 43.7426 25.24C42.8946 25.24 42.1666 25.152 41.5586 24.976C40.9506 24.8 40.4146 24.568 39.9506 24.28V21.808C40.5106 22.176 41.1026 22.456 41.7266 22.648C42.3666 22.824 42.9986 22.912 43.6226 22.912C44.3106 22.912 44.9106 22.784 45.4226 22.528C45.9506 22.256 46.3986 21.88 46.7666 21.4C47.1346 20.92 47.4306 20.352 47.6546 19.696C47.8786 19.024 48.0306 18.28 48.1106 17.464C47.1826 18.6 45.9186 19.168 44.3186 19.168C43.5986 19.168 42.9186 19.056 42.2786 18.832C41.6546 18.592 41.1026 18.24 40.6226 17.776C40.1426 17.296 39.7586 16.704 39.4706 16C39.1986 15.28 39.0626 14.44 39.0626 13.48C39.0626 12.552 39.2146 11.72 39.5186 10.984C39.8386 10.248 40.2626 9.632 40.7906 9.136C41.3346 8.624 41.9586 8.232 42.6626 7.96C43.3826 7.688 44.1346 7.552 44.9186 7.552C46.9026 7.552 48.4066 8.192 49.4306 9.472C50.4706 10.736 50.9906 12.656 50.9906 15.232ZM44.9666 9.904C44.5666 9.904 44.1826 9.976 43.8146 10.12C43.4626 10.264 43.1506 10.488 42.8786 10.792C42.6066 11.08 42.3906 11.448 42.2306 11.896C42.0706 12.328 41.9906 12.84 41.9906 13.432C41.9906 14.008 42.0626 14.512 42.2066 14.944C42.3666 15.376 42.5746 15.736 42.8306 16.024C43.1026 16.312 43.3986 16.528 43.7186 16.672C44.0546 16.816 44.4066 16.888 44.7746 16.888C45.2066 16.888 45.6066 16.816 45.9746 16.672C46.3586 16.528 46.6946 16.312 46.9826 16.024C47.2706 15.736 47.4946 15.376 47.6546 14.944C47.8146 14.512 47.8946 14 47.8946 13.408C47.8946 12.304 47.6226 11.448 47.0786 10.84C46.5346 10.216 45.8306 9.904 44.9666 9.904ZM55.6271 15.568V7.792H59.9951C61.7711 7.792 63.1791 8.2 64.2191 9.016C65.2751 9.816 65.8031 11.048 65.8031 12.712C65.8031 13.576 65.6591 14.312 65.3711 14.92C65.0831 15.528 64.6751 16.024 64.1471 16.408C63.6351 16.792 63.0111 17.08 62.2751 17.272C61.5391 17.448 60.7311 17.536 59.8511 17.536H58.5311V19.24H63.3551V21.208H58.5311V25H55.6271V21.208H53.8031V19.24H55.6271V17.536H53.8031V15.568H55.6271ZM58.5311 10.144V15.568H59.8751C61.8911 15.568 62.8991 14.624 62.8991 12.736C62.8991 11.824 62.6671 11.168 62.2031 10.768C61.7551 10.352 61.0191 10.144 59.9951 10.144H58.5311Z" fill="#2E2C21"/>
<defs>
<radialGradient id="paint0_radial_20_827" cx="0" cy="0" r="1" gradientUnits="userSpaceOnUse" gradientTransform="translate(149 -1.96695e-06) rotate(163.989) scale(119.641 63.4397)">
<stop stop-color="#E0B8FF"/>
<stop offset="1" stop-color="#B6B9FF"/>
</radialGradient>
<radialGradient id="paint1_radial_20_827" cx="0" cy="0" r="1" gradientUnits="userSpaceOnUse" gradientTransform="translate(79 -1.96695e-06) rotate(157.329) scale(85.6154 60.9002)">
<stop stop-color="#E0B8FF"/>
<stop offset="1" stop-color="#B6B9FF"/>
</radialGradient>
</defs>
</svg>
